<svg width="16" height="17" viewBox="0 0 16 17" fill="none" xmlns="http://www.w3.org/2000/svg">
<path d="M1.33331 6.50001V5.16668C1.33331 3.16668 2.66665 1.83334 4.66665 1.83334H11.3333C13.3333 1.83334 14.6666 3.16668 14.6666 5.16668V6.50001" stroke="white" stroke-opacity="0.65" stroke-width="1.5" stroke-miterlimit="10" stroke-linecap="round" stroke-linejoin="round"/>
<path d="M1.33331 10.5V11.8333C1.33331 13.8333 2.66665 15.1667 4.66665 15.1667H11.3333C13.3333 15.1667 14.6666 13.8333 14.6666 11.8333V10.5" stroke="white" stroke-opacity="0.65" stroke-width="1.5" stroke-miterlimit="10" stroke-linecap="round" stroke-linejoin="round"/>
<path fill-rule="evenodd" clip-rule="evenodd" d="M11.3294 5.22357L9.19983 4.03898C8.83082 3.83115 8.39511 3.74832 8.0008 3.74832C7.60787 3.74832 7.17256 3.83061 6.80498 4.03998L4.67574 5.22439L4.67545 5.22455L4.67538 5.22459C4.29081 5.43835 3.98342 5.7836 3.77424 6.13769C3.56497 6.49192 3.40997 6.9295 3.40997 7.37333V9.63334C3.40997 10.0746 3.56166 10.5115 3.77087 10.8675C3.97954 11.2226 4.28768 11.569 4.67722 11.7831L6.80743 12.968L6.80835 12.9685C7.17513 13.1732 7.60937 13.2533 8.0008 13.2533C8.39313 13.2533 8.82719 13.1729 9.19511 12.9703L9.19788 12.9687L11.3309 11.7823L11.3312 11.7821C11.7158 11.5683 12.0232 11.2231 12.2324 10.869C12.4416 10.5148 12.5966 10.0772 12.5966 9.63334V7.37333C12.5966 6.93204 12.4449 6.49514 12.2357 6.13916C12.0271 5.78408 11.7189 5.43772 11.3294 5.22357ZM7.54643 5.34391C7.63117 5.29531 7.79378 5.24832 8.0008 5.24832C8.20726 5.24832 8.3738 5.29511 8.46426 5.34624L8.46425 5.34626L8.46872 5.34874L10.4338 6.44183L7.99982 7.85316L5.56797 6.44453L7.53788 5.34874L7.53792 5.3488L7.54643 5.34391ZM4.90997 7.79686V9.63334C4.90997 9.74539 4.95495 9.92182 5.06407 10.1075C5.17331 10.2934 5.30435 10.4163 5.40037 10.4689L5.40455 10.4712L5.40454 10.4712L7.25 11.4978V9.15231L4.90997 7.79686ZM8.75 11.5014L10.6021 10.4712L10.6024 10.4711C10.6977 10.4181 10.8302 10.2935 10.9409 10.106C11.0516 9.91859 11.0966 9.74284 11.0966 9.63334V7.79141L8.75 9.1521V11.5014Z" fill="white" fill-opacity="0.65"/>
</svg>
