<svg width="16" height="17" viewBox="0 0 16 17" fill="none" xmlns="http://www.w3.org/2000/svg">
<path d="M5.99998 15.1667H9.99998C13.3333 15.1667 14.6666 13.8333 14.6666 10.5V6.50001C14.6666 3.16668 13.3333 1.83334 9.99998 1.83334H5.99998C2.66665 1.83334 1.33331 3.16668 1.33331 6.50001V10.5C1.33331 13.8333 2.66665 15.1667 5.99998 15.1667Z" stroke="white" stroke-opacity="0.65" stroke-width="1.5" stroke-linecap="round" stroke-linejoin="round"/>
<path d="M7.17332 4.69334L5.03998 5.88001C4.55998 6.14667 4.15997 6.82 4.15997 7.37334V9.63334C4.15997 10.1867 4.55331 10.86 5.03998 11.1267L7.17332 12.3133C7.62665 12.5667 8.37331 12.5667 8.83331 12.3133L10.9667 11.1267C11.4467 10.86 11.8466 10.1867 11.8466 9.63334V7.36667C11.8466 6.81334 11.4533 6.14 10.9667 5.87334L8.83331 4.68667C8.37331 4.43334 7.62665 4.43334 7.17332 4.69334Z" stroke="white" stroke-opacity="0.65" stroke-width="1.5" stroke-linecap="round" stroke-linejoin="round"/>
<path fill-rule="evenodd" clip-rule="evenodd" d="M4.8426 6.02436C4.48417 5.81674 4.02531 5.93899 3.81769 6.29742C3.61008 6.65584 3.73233 7.11471 4.09075 7.32233L7.25 9.15231V12.3467C7.25 12.7609 7.58579 13.0967 8 13.0967C8.41422 13.0967 8.75 12.7609 8.75 12.3467V9.15209L11.8829 7.33549C12.2412 7.12771 12.3633 6.66879 12.1555 6.31046C11.9477 5.95213 11.4888 5.83008 11.1305 6.03786L7.99981 7.85316L4.8426 6.02436Z" fill="white" fill-opacity="0.65"/>
</svg>
