<svg width="15" height="15" viewBox="0 0 15 15" fill="none" xmlns="http://www.w3.org/2000/svg">
<path fill-rule="evenodd" clip-rule="evenodd" d="M7.50001 0C5.45218 0 3.59698 0.830962 2.25564 2.17229L2.25563 2.17229C0.914306 3.51364 0.0833435 5.36883 0.0833435 7.41667C0.0833435 9.4645 0.914305 11.3197 2.25563 12.661L2.75349 12.1632L2.25564 12.661C3.59698 14.0024 5.45217 14.8333 7.50001 14.8333C9.54785 14.8333 11.403 14.0024 12.7444 12.661C14.0857 11.3197 14.9167 9.4645 14.9167 7.41667C14.9167 5.36883 14.0857 3.51364 12.7444 2.17229L12.2465 2.67015L12.7444 2.17229C11.403 0.830962 9.54784 0 7.50001 0ZM3.3163 3.23295L3.31629 3.23295C2.24476 4.3045 1.58334 5.78264 1.58334 7.41667C1.58334 9.0507 2.24477 10.5288 3.31629 11.6004C4.38784 12.6719 5.86598 13.3333 7.50001 13.3333C9.13404 13.3333 10.6122 12.6719 11.6837 11.6004C12.7552 10.5288 13.4167 9.0507 13.4167 7.41667C13.4167 5.78264 12.7552 4.3045 11.6837 3.23295C10.6122 2.16142 9.13404 1.5 7.50001 1.5C5.86598 1.5 4.38785 2.16142 3.3163 3.23295ZM7.5 3.41666C7.91421 3.41666 8.25 3.75245 8.25 4.16666V8.16666C8.25 8.58088 7.91421 8.91666 7.5 8.91666C7.08579 8.91666 6.75 8.58088 6.75 8.16666V4.16666C6.75 3.75245 7.08579 3.41666 7.5 3.41666ZM7.50002 11.5C7.96025 11.5 8.33335 11.1269 8.33335 10.6667C8.33335 10.2064 7.96025 9.83334 7.50002 9.83334C7.03979 9.83334 6.66669 10.2064 6.66669 10.6667C6.66669 11.1269 7.03979 11.5 7.50002 11.5Z" fill="white" fill-opacity="0.45"/>
</svg>
