<svg width="16" height="17" viewBox="0 0 16 17" fill="none" xmlns="http://www.w3.org/2000/svg">
<path fill-rule="evenodd" clip-rule="evenodd" d="M9.747 1.4889C9.22628 1.20363 8.59259 1.08151 7.99957 1.08249C7.40769 1.08348 6.7741 1.20727 6.25476 1.49826L2.69668 3.47053L2.69658 3.47059L2.69638 3.4707C2.14814 3.77436 1.69359 4.2765 1.3781 4.81155C1.0626 5.34663 0.843323 5.98727 0.843323 6.61333V10.38C0.843323 11.006 1.0626 11.6467 1.3781 12.1818C1.69353 12.7167 2.14794 13.2187 2.69603 13.5224L2.69668 13.5228L6.25544 15.5021L6.25722 15.5031C6.77636 15.79 7.41125 15.9117 8.00332 15.9117C8.59539 15.9117 9.23029 15.79 9.74942 15.5031L9.7512 15.5021L13.31 13.5228L13.3107 13.5224C13.8587 13.2187 14.3131 12.7167 14.6285 12.1818C14.944 11.6467 15.1633 11.006 15.1633 10.38V6.61333C15.1633 5.98727 14.944 5.34663 14.6285 4.81155C14.3131 4.27666 13.8588 3.77465 13.3107 3.47096L13.31 3.47053L9.7512 1.49122L9.75121 1.4912L9.747 1.4889ZM6.98714 2.80732C7.22744 2.67241 7.59302 2.58317 8.00207 2.58249C8.40969 2.58181 8.7785 2.66925 9.02445 2.80341L12.5821 4.7821L12.5833 4.78279C12.7173 4.85697 12.8568 4.96829 12.9901 5.10941L7.99983 8.00002L3.01242 5.11376C3.14703 4.97058 3.28796 4.85773 3.4233 4.78279L3.4236 4.78263L6.9836 2.80929L6.9836 2.8093L6.98714 2.80732ZM2.35197 6.46462C2.34621 6.51614 2.34332 6.56585 2.34332 6.61333V10.38C2.34332 10.6739 2.45405 11.0533 2.67021 11.4199C2.88633 11.7864 3.16501 12.0675 3.4233 12.2105L3.42453 12.2112L6.98275 14.1902L6.98349 14.1906C7.0603 14.233 7.15005 14.2708 7.25 14.3027V9.29916L2.35197 6.46462ZM8.75 14.3048C8.85259 14.2725 8.9446 14.234 9.0231 14.1907L9.02389 14.1902L12.5821 12.2112L12.5833 12.2105C12.8416 12.0675 13.1203 11.7864 13.3364 11.4199C13.5526 11.0533 13.6633 10.6739 13.6633 10.38V6.61333C13.6633 6.56393 13.6602 6.51211 13.654 6.45836L8.75 9.29897V14.3048Z" fill="white" fill-opacity="0.65"/>
</svg>
