<svg width="16" height="17" viewBox="0 0 16 17" fill="none" xmlns="http://www.w3.org/2000/svg">
<path fill-rule="evenodd" clip-rule="evenodd" d="M5.33331 1.08333C5.74753 1.08333 6.08331 1.41911 6.08331 1.83333V2.08333H9.91669V1.83333C9.91669 1.41911 10.2525 1.08333 10.6667 1.08333C11.0809 1.08333 11.4167 1.41911 11.4167 1.83333V2.15181C12.3121 2.27956 13.1213 2.58191 13.7236 3.25194C14.4683 4.08038 14.75 5.31011 14.75 6.93333V11.0533C14.75 12.4374 14.5951 13.7184 13.8216 14.6289C13.0211 15.5712 11.7367 15.9233 10 15.9233H6C4.26329 15.9233 2.97894 15.5712 2.17841 14.6289C1.40493 13.7184 1.25 12.4374 1.25 11.0533V6.93333C1.25 5.31005 1.53171 4.08175 2.27673 3.25406C2.87907 2.5849 3.68834 2.28277 4.58331 2.15345V1.83333C4.58331 1.41911 4.9191 1.08333 5.33331 1.08333ZM4.58331 3.67389C4.01236 3.78355 3.64409 3.97709 3.3916 4.25759C3.02496 4.66491 2.75 5.42327 2.75 6.93333V11.0533C2.75 11.2036 2.75217 11.3469 2.75656 11.4833H13.2434C13.2478 11.3469 13.25 11.2036 13.25 11.0533V6.93333C13.25 5.42322 12.975 4.66294 12.6081 4.25472C12.3557 3.97393 11.9875 3.78024 11.4167 3.67177V3.83333C11.4167 4.24754 11.0809 4.58333 10.6667 4.58333C10.2525 4.58333 9.91669 4.24754 9.91669 3.83333V3.58333H6.08331V3.83333C6.08331 4.24754 5.74753 4.58333 5.33331 4.58333C4.9191 4.58333 4.58331 4.24754 4.58331 3.83333V3.67389ZM3.32159 13.6578C3.17304 13.4829 3.05514 13.2629 2.96595 12.9833H13.0341C12.9449 13.2629 12.827 13.4829 12.6784 13.6578C12.3123 14.0887 11.5966 14.4233 10 14.4233H6C4.40338 14.4233 3.68773 14.0887 3.32159 13.6578ZM8.65975 8.87812C8.63833 8.84779 8.61377 8.8198 8.58634 8.79423C8.50536 8.71876 8.39938 8.66434 8.27553 8.63264C8.19121 8.61105 8.09861 8.6 7.99998 8.6C7.88945 8.6 7.7865 8.61346 7.69429 8.63996C7.58228 8.67215 7.48613 8.72357 7.4115 8.79347C7.38675 8.81665 7.36438 8.84186 7.34457 8.86908C7.27752 8.96121 7.23998 9.07632 7.23998 9.21333C7.23998 9.25045 7.24273 9.28602 7.24809 9.32C7.3004 9.65227 7.60081 9.83333 7.99998 9.83333C8.39915 9.83333 8.69956 9.65227 8.75187 9.32C8.75722 9.28602 8.75998 9.25045 8.75998 9.21333C8.75998 9.08156 8.72406 8.96923 8.65975 8.87812ZM8.51005 7.66054C8.44011 7.76047 8.33306 7.83183 8.20208 7.86747C8.13967 7.88446 8.07183 7.89333 7.99998 7.89333C7.92817 7.89333 7.86036 7.88447 7.79799 7.8675C7.66667 7.83179 7.55941 7.76019 7.48946 7.65989C7.46822 7.62943 7.45041 7.59632 7.43643 7.56077C7.41273 7.50054 7.39998 7.43329 7.39998 7.36C7.39998 7.34412 7.40055 7.32857 7.40169 7.31333C7.42432 7.00869 7.66982 6.83333 7.99998 6.83333C8.33014 6.83333 8.57564 7.00869 8.59827 7.31333C8.5994 7.32857 8.59998 7.34412 8.59998 7.36C8.59998 7.43756 8.5857 7.50836 8.55927 7.57123C8.54589 7.60309 8.52939 7.6329 8.51005 7.66054ZM6.48748 7.36C6.48825 7.38139 6.48954 7.40251 6.49135 7.42334C6.51283 7.67067 6.60676 7.87834 6.75024 8.04307C6.81516 8.1176 6.89022 8.18335 6.97331 8.24C6.90445 8.28064 6.84056 8.32548 6.78193 8.37414C6.56943 8.55052 6.42604 8.77704 6.36564 9.0352C6.35211 9.09306 6.34274 9.15251 6.33769 9.21333C6.33478 9.24844 6.33331 9.28401 6.33331 9.32C6.33331 10.1467 6.96665 10.66 7.99998 10.66C9.02665 10.66 9.66665 10.1467 9.66665 9.32C9.66665 9.28405 9.66518 9.24848 9.66227 9.21333C9.65712 9.15109 9.64745 9.09018 9.63341 9.0309C9.57266 8.77438 9.43007 8.54813 9.21762 8.37459C9.15729 8.3253 9.09131 8.28027 9.01998 8.24C9.10448 8.18179 9.17999 8.11565 9.24486 8.04142C9.39759 7.86669 9.49141 7.64717 9.50495 7.38091L9.50584 7.36C9.50638 7.3446 9.50665 7.32904 9.50665 7.31333C9.50665 6.44667 8.81998 6 7.99998 6C7.17998 6 6.48665 6.44667 6.48665 7.31333C6.48665 7.32903 6.48693 7.34459 6.48748 7.36Z" fill="white" fill-opacity="0.65"/>
</svg>
