<svg width="14" height="14" viewBox="0 0 14 14" fill="none" xmlns="http://www.w3.org/2000/svg">
<path fill-rule="evenodd" clip-rule="evenodd" d="M10.592 1.30172C10.6505 1.03183 10.4791 0.765661 10.2092 0.707206C9.9393 0.648751 9.67313 0.820148 9.61467 1.09003L9.45874 1.80998H6.6212L6.73946 1.31873C6.8041 1.05026 6.63885 0.780226 6.37038 0.715592C6.10191 0.650959 5.83187 0.816203 5.76724 1.08467L5.59263 1.80998H4.34585C3.55171 1.80998 2.85296 2.33509 2.61992 3.08952L2.61973 3.09013L0.164292 10.9755L0.16415 10.9759C-0.196784 12.1389 0.667469 13.3333 1.89001 13.3333H9.33039L9.33336 13.3333H12.1217C13.1665 13.3333 13.9821 12.4494 13.9096 11.4102L13.9095 11.4088L13.332 3.46377C13.3295 3.42909 13.3235 3.3955 13.3144 3.3633C13.2926 3.21082 13.2507 3.06156 13.1882 2.91862C12.9205 2.27594 12.284 1.80998 11.5208 1.80998H10.4819L10.592 1.30172ZM9.24214 2.80998L9.06634 3.62168C9.00788 3.89156 9.17928 4.15774 9.44916 4.21619C9.71905 4.27465 9.98522 4.10325 10.0437 3.83336L10.2653 2.80998H11.5208C11.8637 2.80998 12.1474 3.01794 12.2661 3.30565L12.266 3.30571L12.271 3.31706C12.334 3.4597 12.3526 3.63216 12.3067 3.82483L10.3415 11.715L10.3415 11.715L10.3402 11.7203C10.2547 12.0801 9.93416 12.3333 9.55501 12.3333H1.89001C1.35094 12.3333 0.955238 11.8011 1.11916 11.2725L1.11921 11.2723L3.5749 3.38619L3.57529 3.38493C3.68077 3.04302 3.99688 2.80998 4.34585 2.80998H5.35188L5.16057 3.60464C5.09593 3.87312 5.26118 4.14315 5.52965 4.20778C5.79812 4.27242 6.06816 4.10717 6.13279 3.8387L6.38045 2.80998H9.24214ZM12.5774 6.87571L11.3125 11.9542C11.2805 12.0879 11.2343 12.2147 11.1756 12.3333H12.1217C12.5817 12.3333 12.9442 11.946 12.9121 11.4804L12.9121 11.4798L12.5774 6.87571ZM3.99168 7.00001C3.99168 6.72387 4.21554 6.50001 4.49168 6.50001H9.15835C9.43449 6.50001 9.65835 6.72387 9.65835 7.00001C9.65835 7.27616 9.43449 7.50001 9.15835 7.50001H4.49168C4.21554 7.50001 3.99168 7.27616 3.99168 7.00001ZM3.90834 8.83336C3.63219 8.83336 3.40834 9.05721 3.40834 9.33336C3.40834 9.6095 3.63219 9.83336 3.90834 9.83336H8.575C8.85115 9.83336 9.075 9.6095 9.075 9.33336C9.075 9.05721 8.85115 8.83336 8.575 8.83336H3.90834Z" fill="white" fill-opacity="0.65"/>
</svg>
