<svg width="12" height="13" viewBox="0 0 12 13" fill="none" xmlns="http://www.w3.org/2000/svg">
<path fill-rule="evenodd" clip-rule="evenodd" d="M6.76223 1.50092C6.76274 1.0867 6.42736 0.750508 6.01315 0.750001C5.59894 0.749495 5.26274 1.08487 5.26223 1.49908L5.25703 5.75H1C0.585786 5.75 0.25 6.08579 0.25 6.5C0.25 6.91421 0.585786 7.25 1 7.25H5.2552L5.25 11.4991C5.24949 11.9133 5.58487 12.2495 5.99908 12.25C6.4133 12.2505 6.74949 11.9151 6.75 11.5009L6.7552 7.25H11C11.4142 7.25 11.75 6.91421 11.75 6.5C11.75 6.08579 11.4142 5.75 11 5.75H6.75703L6.76223 1.50092Z" fill="white" fill-opacity="0.65"/>
</svg>
