<svg width="16" height="17" viewBox="0 0 16 17" fill="none" xmlns="http://www.w3.org/2000/svg">
<path d="M6.10664 7.74667C6.03998 7.74 5.95998 7.74 5.88664 7.74667C4.29998 7.69334 3.03998 6.39334 3.03998 4.79334C3.03998 3.16 4.35998 1.83334 5.99998 1.83334C7.63331 1.83334 8.95998 3.16 8.95998 4.79334C8.95331 6.39334 7.69331 7.69334 6.10664 7.74667Z" stroke="white" stroke-opacity="0.65" stroke-width="1.5" stroke-linecap="round" stroke-linejoin="round"/>
<path d="M10.94 3.16666C12.2333 3.16666 13.2733 4.21333 13.2733 5.5C13.2733 6.76 12.2733 7.78666 11.0267 7.83333C10.9733 7.82666 10.9133 7.82666 10.8533 7.83333" stroke="white" stroke-opacity="0.65" stroke-width="1.5" stroke-linecap="round" stroke-linejoin="round"/>
<path d="M2.77329 10.2067C1.15996 11.2867 1.15996 13.0467 2.77329 14.12C4.60663 15.3467 7.61329 15.3467 9.44663 14.12C11.06 13.04 11.06 11.28 9.44663 10.2067C7.61996 8.98666 4.61329 8.98666 2.77329 10.2067Z" stroke="white" stroke-opacity="0.65" stroke-width="1.5" stroke-linecap="round" stroke-linejoin="round"/>
<path d="M12.2267 13.8333C12.7067 13.7333 13.16 13.54 13.5334 13.2533C14.5734 12.4733 14.5734 11.1867 13.5334 10.4067C13.1667 10.1267 12.72 9.94 12.2467 9.83334" stroke="white" stroke-opacity="0.65" stroke-width="1.5" stroke-linecap="round" stroke-linejoin="round"/>
</svg>
