<svg width="20" height="20" viewBox="0 0 20 20" fill="none" xmlns="http://www.w3.org/2000/svg">
<g clip-path="url(#clip0_13_519)">
<path d="M10 5.36667V8.14167" stroke="white" stroke-opacity="0.65" stroke-width="1.5" stroke-miterlimit="10" stroke-linecap="round"/>
<path d="M10.0166 1.66666C6.94998 1.66666 4.46664 4.14999 4.46664 7.21666V8.96666C4.46664 9.53332 4.23331 10.3833 3.94164 10.8667L2.88331 12.6333C2.23331 13.725 2.68331 14.9417 3.88331 15.3417C7.86664 16.6667 12.175 16.6667 16.1583 15.3417C17.2833 14.9667 17.7666 13.65 17.1583 12.6333L16.1 10.8667C15.8083 10.3833 15.575 9.52499 15.575 8.96666V7.21666C15.5666 4.16666 13.0666 1.66666 10.0166 1.66666Z" stroke="white" stroke-opacity="0.65" stroke-width="1.5" stroke-miterlimit="10" stroke-linecap="round"/>
<path d="M12.775 15.6833C12.775 17.2083 11.525 18.4583 10 18.4583C9.24167 18.4583 8.54167 18.1417 8.04167 17.6417C7.54167 17.1417 7.22501 16.4417 7.22501 15.6833" stroke="white" stroke-opacity="0.65" stroke-width="1.5" stroke-miterlimit="10"/>
</g>
<defs>
<clipPath id="clip0_13_519">
<rect width="20" height="20" fill="white"/>
</clipPath>
</defs>
</svg>
