<svg width="20" height="20" viewBox="0 0 20 20" fill="none" xmlns="http://www.w3.org/2000/svg">
<path fill-rule="evenodd" clip-rule="evenodd" d="M2.41666 8.74999C2.41666 5.25219 5.25219 2.41666 8.74999 2.41666C12.2478 2.41666 15.0833 5.25219 15.0833 8.74999C15.0833 12.2478 12.2478 15.0833 8.74999 15.0833C5.25219 15.0833 2.41666 12.2478 2.41666 8.74999ZM8.74999 0.916656C4.42376 0.916656 0.916656 4.42376 0.916656 8.74999C0.916656 13.0762 4.42376 16.5833 8.74999 16.5833C10.643 16.5833 12.3792 15.9118 13.7334 14.794L17.803 18.8637C18.0959 19.1565 18.5708 19.1565 18.8637 18.8637C19.1565 18.5708 19.1565 18.0959 18.8637 17.803L14.794 13.7334C15.9118 12.3792 16.5833 10.643 16.5833 8.74999C16.5833 4.42376 13.0762 0.916656 8.74999 0.916656Z" fill="white" fill-opacity="0.65"/>
</svg>
