<svg width="16" height="16" viewBox="0 0 16 16" fill="none" xmlns="http://www.w3.org/2000/svg">
<path fill-rule="evenodd" clip-rule="evenodd" d="M8.33333 1.5C6.76853 1.5 5.5 2.76853 5.5 4.33333C5.5 5.89814 6.76853 7.16667 8.33333 7.16667C9.89814 7.16667 11.1667 5.89814 11.1667 4.33333C11.1667 2.76853 9.89814 1.5 8.33333 1.5ZM4.5 4.33333C4.5 2.21624 6.21624 0.5 8.33333 0.5C10.4504 0.5 12.1667 2.21624 12.1667 4.33333C12.1667 6.45042 10.4504 8.16667 8.33333 8.16667C6.21624 8.16667 4.5 6.45042 4.5 4.33333ZM8.00001 10.5C5.01526 10.5 2.77335 12.4539 2.77335 14.6667C2.77335 14.9428 2.54949 15.1667 2.27335 15.1667C1.9972 15.1667 1.77335 14.9428 1.77335 14.6667C1.77335 11.7194 4.66476 9.5 8.00001 9.5C8.62224 9.5 9.22774 9.57652 9.80063 9.71941C10.3725 9.16846 11.1504 8.83334 12 8.83334C12.931 8.83334 13.7798 9.23558 14.3536 9.88768C14.8579 10.4483 15.1667 11.1919 15.1667 12C15.1667 12.2522 15.1355 12.499 15.0723 12.7393C15.0001 13.0553 14.874 13.3622 14.7076 13.6325C14.1603 14.5498 13.1546 15.1667 12 15.1667C11.1864 15.1667 10.4491 14.8587 9.89418 14.3535C9.6577 14.1476 9.45178 13.9024 9.2917 13.6314C8.99863 13.1543 8.83334 12.5919 8.83334 12C8.83334 11.5009 8.94952 11.0258 9.1567 10.6033C8.78358 10.5357 8.39617 10.5 8.00001 10.5ZM10.4452 10.4886C10.8408 10.0822 11.3928 9.83334 12 9.83334C12.6411 9.83334 13.2181 10.1101 13.6043 10.5499L13.6043 10.5499L13.6086 10.5548C13.9563 10.9405 14.1667 11.4493 14.1667 12C14.1667 12.1712 14.1453 12.3345 14.1036 12.4912L14.1008 12.5021L14.0989 12.5102C14.051 12.7228 13.9655 12.9311 13.8546 13.1106L13.8546 13.1106L13.8503 13.1177C13.4771 13.7451 12.7906 14.1667 12 14.1667C11.4427 14.1667 10.9419 13.9565 10.5641 13.611L10.5642 13.6108L10.5541 13.6021C10.394 13.4634 10.256 13.2985 10.151 13.1198L10.1511 13.1198L10.1456 13.1109C9.94702 12.7889 9.83334 12.4063 9.83334 12C9.83334 11.4143 10.0663 10.8782 10.4452 10.4886ZM10.5067 11.9867C10.5067 11.7105 10.7305 11.4867 11.0067 11.4867H11.5V11.0133C11.5 10.7372 11.7239 10.5133 12 10.5133C12.2761 10.5133 12.5 10.7372 12.5 11.0133V11.4867H12.9933C13.2695 11.4867 13.4933 11.7105 13.4933 11.9867C13.4933 12.2628 13.2695 12.4867 12.9933 12.4867H12.5V13.0067C12.5 13.2828 12.2761 13.5067 12 13.5067C11.7239 13.5067 11.5 13.2828 11.5 13.0067V12.4867H11.0067C10.7305 12.4867 10.5067 12.2628 10.5067 11.9867Z" fill="white" fill-opacity="0.65"/>
</svg>
